<svg width="117" height="32" viewBox="0 0 117 32" fill="none" xmlns="http://www.w3.org/2000/svg">
<g clip-path="url(#clip0_4001_158)">
<path d="M15.1618 8.85808C14.8469 6.15898 14.5143 3.30915 14.5143 0H17.4857C17.4857 3.27198 17.1547 6.11819 16.8402 8.82032C16.5839 11.0224 16.3388 13.1288 16.2933 15.292C17.7853 13.7358 19.0904 12.0856 20.4576 10.357C22.1433 8.22584 23.9234 5.97556 26.2632 3.63571L28.3643 5.73683C26.0506 8.05048 23.8038 9.82888 21.6707 11.5173L21.6687 11.5188C19.9313 12.8942 18.2692 14.2099 16.708 15.7067C18.8632 15.6612 20.9529 15.4174 23.1418 15.1619C25.8409 14.8469 28.6909 14.5143 32 14.5143V17.4857C28.7282 17.4857 25.8819 17.1546 23.1799 16.8402L23.1779 16.84C20.9763 16.5838 18.8706 16.3389 16.708 16.2933C18.2632 17.7842 19.9125 19.0887 21.6399 20.455L21.6426 20.4573C23.7739 22.1431 26.0243 23.9231 28.3643 26.2632L26.2632 28.3643C23.9495 26.0507 22.1712 23.804 20.483 21.6711L20.479 21.6656L20.4757 21.6612C19.102 19.9265 17.7879 18.267 16.2933 16.708C16.3388 18.8712 16.5839 20.9776 16.8402 23.1797C17.1547 25.8818 17.4857 28.728 17.4857 32H14.5143C14.5143 28.6909 14.8469 25.841 15.1618 23.1419L15.1625 23.1375C15.4176 20.9502 15.6612 18.8618 15.7067 16.708C14.2121 18.267 12.898 19.9265 11.5243 21.6612L11.521 21.6656L11.517 21.6711C9.8288 23.804 8.05048 26.0507 5.73683 28.3643L3.63571 26.2632C5.97567 23.9231 8.22608 22.1431 10.3574 20.4573L10.3601 20.455C12.0875 19.0887 13.7368 17.7842 15.292 16.2933C13.1288 16.339 11.0223 16.584 8.82008 16.8402C6.11808 17.1546 3.27187 17.4857 0 17.4857V14.5143C3.30915 14.5143 6.15915 14.8469 8.85824 15.1619C11.0471 15.4174 13.1368 15.6612 15.292 15.7067C13.7302 14.2094 12.0674 12.8933 10.3293 11.5173C8.19624 9.82888 5.94933 8.05048 3.63571 5.73683L5.73683 3.63571C8.07656 5.97556 9.85672 8.22584 11.5424 10.357C12.9096 12.0855 14.2147 13.7357 15.7067 15.2918C15.6612 13.1382 15.4176 11.0498 15.1625 8.86248L15.1618 8.85808Z" fill="#FFA589"/>
</g>
<path d="M48.9923 26.3409C48.0705 26.3409 47.2341 26.1673 46.4828 25.8201C45.7315 25.4665 45.1349 24.9583 44.693 24.2955C44.2511 23.6263 44.0301 22.8182 44.0301 21.8712C44.0301 21.0379 44.1943 20.3624 44.5226 19.8447C44.8508 19.3207 45.2896 18.9104 45.8389 18.6136C46.3881 18.3169 46.9942 18.096 47.657 17.9508C48.3262 17.7992 48.9986 17.6793 49.6741 17.5909C50.5579 17.4773 51.2745 17.392 51.8237 17.3352C52.3793 17.2721 52.7833 17.1679 53.0358 17.0227C53.2947 16.8775 53.4241 16.625 53.4241 16.2652V16.1894C53.4241 15.255 53.1684 14.529 52.657 14.0114C52.152 13.4937 51.3849 13.2348 50.3559 13.2348C49.289 13.2348 48.4525 13.4684 47.8464 13.9356C47.2404 14.4028 46.8142 14.9015 46.568 15.4318L44.4468 14.6742C44.8256 13.7904 45.3306 13.1023 45.962 12.6098C46.5996 12.1111 47.294 11.7639 48.0453 11.5682C48.8029 11.3662 49.5478 11.2652 50.2801 11.2652C50.7473 11.2652 51.2839 11.322 51.89 11.4356C52.5024 11.5429 53.0926 11.767 53.6608 12.108C54.2353 12.4489 54.712 12.9634 55.0907 13.6515C55.4695 14.3396 55.6589 15.2614 55.6589 16.4167V26H53.4241V24.0303H53.3104C53.1589 24.346 52.9064 24.6837 52.5529 25.0436C52.1993 25.4034 51.729 25.7096 51.1419 25.9621C50.5548 26.2146 49.8382 26.3409 48.9923 26.3409ZM49.3332 24.3333C50.217 24.3333 50.962 24.1597 51.568 23.8125C52.1804 23.4653 52.6413 23.017 52.9506 22.4678C53.2663 21.9186 53.4241 21.3409 53.4241 20.7348V18.6894C53.3294 18.803 53.1211 18.9072 52.7991 19.0019C52.4834 19.0903 52.1173 19.1692 51.7006 19.2386C51.2902 19.3018 50.8894 19.3586 50.4979 19.4091C50.1128 19.4533 49.8003 19.4912 49.5604 19.5227C48.9796 19.5985 48.4367 19.7216 47.9317 19.892C47.4329 20.0562 47.0289 20.3056 46.7195 20.6402C46.4165 20.9684 46.265 21.4167 46.265 21.9848C46.265 22.7614 46.5522 23.3485 47.1267 23.7462C47.7075 24.1376 48.443 24.3333 49.3332 24.3333ZM68.9744 14.7121L66.9668 15.2803C66.8405 14.9457 66.6543 14.6206 66.4081 14.3049C66.1682 13.983 65.8399 13.7178 65.4232 13.5095C65.0066 13.3011 64.4731 13.197 63.8228 13.197C62.9327 13.197 62.1909 13.4021 61.5975 13.8125C61.0103 14.2165 60.7168 14.7311 60.7168 15.3561C60.7168 15.9116 60.9188 16.3504 61.3228 16.6723C61.7269 16.9943 62.3582 17.2626 63.2168 17.4773L65.3759 18.0076C66.6764 18.3232 67.6455 18.8062 68.2831 19.4564C68.9207 20.1004 69.2395 20.9306 69.2395 21.947C69.2395 22.7803 68.9996 23.5253 68.5198 24.1818C68.0463 24.8384 67.3835 25.3561 66.5312 25.7348C65.6789 26.1136 64.6877 26.303 63.5577 26.303C62.0741 26.303 60.8462 25.9811 59.874 25.3371C58.9018 24.6932 58.2862 23.7525 58.0274 22.5152L60.1486 21.9848C60.3506 22.7677 60.7326 23.3548 61.2944 23.7462C61.8626 24.1376 62.6044 24.3333 63.5198 24.3333C64.5615 24.3333 65.3885 24.1124 66.0009 23.6705C66.6196 23.2222 66.9289 22.6856 66.9289 22.0606C66.9289 21.5556 66.7521 21.1326 66.3986 20.7917C66.0451 20.4444 65.5021 20.1856 64.7698 20.0152L62.3456 19.447C61.0135 19.1313 60.035 18.642 59.41 17.9792C58.7913 17.31 58.4819 16.4735 58.4819 15.4697C58.4819 14.649 58.7124 13.923 59.1732 13.2917C59.6404 12.6604 60.2749 12.1648 61.0766 11.8049C61.8847 11.4451 62.8001 11.2652 63.8228 11.2652C65.2622 11.2652 66.3923 11.5808 67.213 12.2121C68.04 12.8434 68.6271 13.6768 68.9744 14.7121ZM77.8627 11.4545V13.3485H70.3248V11.4545H77.8627ZM72.5218 7.9697H74.7567V21.8333C74.7567 22.4646 74.8482 22.9381 75.0313 23.2538C75.2207 23.5631 75.4606 23.7715 75.751 23.8788C76.0477 23.9798 76.3602 24.0303 76.6885 24.0303C76.9347 24.0303 77.1367 24.0177 77.2945 23.9924C77.4524 23.9609 77.5786 23.9356 77.6733 23.9167L78.1279 25.9242C77.9764 25.9811 77.7649 26.0379 77.4934 26.0947C77.2219 26.1578 76.8779 26.1894 76.4612 26.1894C75.8299 26.1894 75.2112 26.0537 74.6051 25.7822C74.0054 25.5107 73.5067 25.0972 73.1089 24.5417C72.7175 23.9861 72.5218 23.2854 72.5218 22.4394V7.9697ZM86.1 26.303C84.6985 26.303 83.4895 25.9937 82.4731 25.375C81.463 24.75 80.6834 23.8788 80.1341 22.7614C79.5912 21.6376 79.3197 20.3308 79.3197 18.8409C79.3197 17.351 79.5912 16.0379 80.1341 14.9015C80.6834 13.7588 81.4473 12.8687 82.4258 12.2311C83.4106 11.5871 84.5596 11.2652 85.8728 11.2652C86.6303 11.2652 87.3784 11.3914 88.1171 11.6439C88.8557 11.8965 89.5281 12.3068 90.1341 12.875C90.7402 13.4369 91.2231 14.1818 91.583 15.1098C91.9428 16.0379 92.1228 17.1806 92.1228 18.5379V19.4848H80.9106V17.553H89.85C89.85 16.7323 89.6859 16 89.3576 15.3561C89.0356 14.7121 88.5748 14.2039 87.975 13.8314C87.3816 13.459 86.6808 13.2727 85.8728 13.2727C84.9826 13.2727 84.2124 13.4937 83.5622 13.9356C82.9182 14.3712 82.4226 14.9394 82.0754 15.6402C81.7282 16.3409 81.5546 17.0922 81.5546 17.8939V19.1818C81.5546 20.2803 81.744 21.2115 82.1228 21.9754C82.5079 22.733 83.0413 23.3106 83.7231 23.7083C84.405 24.0997 85.1973 24.2955 86.1 24.2955C86.6872 24.2955 87.2175 24.2134 87.6909 24.0492C88.1707 23.8788 88.5842 23.6263 88.9315 23.2917C89.2787 22.9508 89.547 22.5278 89.7364 22.0227L91.8955 22.6288C91.6682 23.3611 91.2863 24.0051 90.7497 24.5606C90.213 25.1098 89.5502 25.5391 88.761 25.8485C87.9719 26.1515 87.0849 26.303 86.1 26.303ZM94.4557 26V11.4545H96.6148V13.6515H96.7663C97.0315 12.9318 97.5113 12.3479 98.2057 11.8996C98.9002 11.4514 99.683 11.2273 100.554 11.2273C100.718 11.2273 100.924 11.2304 101.17 11.2367C101.416 11.2431 101.602 11.2525 101.728 11.2652V13.5379C101.653 13.5189 101.479 13.4905 101.208 13.4527C100.942 13.4085 100.662 13.3864 100.365 13.3864C99.6577 13.3864 99.0264 13.5347 98.4709 13.8314C97.9216 14.1218 97.486 14.5259 97.164 15.0436C96.8484 15.5549 96.6906 16.1389 96.6906 16.7955V26H94.4557ZM107.591 26.3409C106.67 26.3409 105.833 26.1673 105.082 25.8201C104.33 25.4665 103.734 24.9583 103.292 24.2955C102.85 23.6263 102.629 22.8182 102.629 21.8712C102.629 21.0379 102.793 20.3624 103.122 19.8447C103.45 19.3207 103.889 18.9104 104.438 18.6136C104.987 18.3169 105.593 18.096 106.256 17.9508C106.925 17.7992 107.598 17.6793 108.273 17.5909C109.157 17.4773 109.873 17.392 110.423 17.3352C110.978 17.2721 111.382 17.1679 111.635 17.0227C111.894 16.8775 112.023 16.625 112.023 16.2652V16.1894C112.023 15.255 111.767 14.529 111.256 14.0114C110.751 13.4937 109.984 13.2348 108.955 13.2348C107.888 13.2348 107.051 13.4684 106.445 13.9356C105.839 14.4028 105.413 14.9015 105.167 15.4318L103.046 14.6742C103.425 13.7904 103.93 13.1023 104.561 12.6098C105.199 12.1111 105.893 11.7639 106.644 11.5682C107.402 11.3662 108.147 11.2652 108.879 11.2652C109.346 11.2652 109.883 11.322 110.489 11.4356C111.101 11.5429 111.692 11.767 112.26 12.108C112.834 12.4489 113.311 12.9634 113.69 13.6515C114.068 14.3396 114.258 15.2614 114.258 16.4167V26H112.023V24.0303H111.909C111.758 24.346 111.505 24.6837 111.152 25.0436C110.798 25.4034 110.328 25.7096 109.741 25.9621C109.154 26.2146 108.437 26.3409 107.591 26.3409ZM107.932 24.3333C108.816 24.3333 109.561 24.1597 110.167 23.8125C110.779 23.4653 111.24 23.017 111.55 22.4678C111.865 21.9186 112.023 21.3409 112.023 20.7348V18.6894C111.928 18.803 111.72 18.9072 111.398 19.0019C111.082 19.0903 110.716 19.1692 110.3 19.2386C109.889 19.3018 109.488 19.3586 109.097 19.4091C108.712 19.4533 108.399 19.4912 108.159 19.5227C107.579 19.5985 107.036 19.7216 106.531 19.892C106.032 20.0562 105.628 20.3056 105.318 20.6402C105.015 20.9684 104.864 21.4167 104.864 21.9848C104.864 22.7614 105.151 23.3485 105.726 23.7462C106.307 24.1376 107.042 24.3333 107.932 24.3333Z" fill="#312E41"/>
<defs>
<clipPath id="clip0_4001_158">
<rect width="32" height="32" fill="white"/>
</clipPath>
</defs>
</svg>
