<svg width="32" height="33" viewBox="0 0 32 33" fill="none" xmlns="http://www.w3.org/2000/svg">
<g clip-path="url(#clip0_2016_37112)">
<path d="M15.1618 8.91692C14.8469 6.21782 14.5143 3.36799 14.5143 0.0588379H17.4857C17.4857 3.33082 17.1547 6.17703 16.8402 8.87916C16.5839 11.0812 16.3388 13.1876 16.2933 15.3508C17.7853 13.7946 19.0904 12.1444 20.4576 10.4159C22.1433 8.28468 23.9234 6.0344 26.2632 3.69455L28.3643 5.79567C26.0506 8.10932 23.8038 9.88772 21.6707 11.5761L21.6687 11.5776C19.9313 12.9531 18.2692 14.2688 16.708 15.7656C18.8632 15.72 20.9529 15.4762 23.1418 15.2208C25.8409 14.9057 28.6909 14.5732 32 14.5732V17.5445C28.7282 17.5445 25.8819 17.2134 23.1799 16.899L23.1779 16.8988C20.9763 16.6427 18.8706 16.3977 16.708 16.3521C18.2632 17.843 19.9125 19.1476 21.6399 20.5138L21.6426 20.5161C23.7739 22.202 26.0243 23.982 28.3643 26.322L26.2632 28.4232C23.9495 26.1096 22.1712 23.8628 20.483 21.73L20.479 21.7244L20.4757 21.72C19.102 19.9853 17.7879 18.3259 16.2933 16.7668C16.3388 18.93 16.5839 21.0364 16.8402 23.2385C17.1547 25.9407 17.4857 28.7868 17.4857 32.0588H14.5143C14.5143 28.7497 14.8469 25.8999 15.1618 23.2008L15.1625 23.1964C15.4176 21.009 15.6612 18.9206 15.7067 16.7668C14.2121 18.3259 12.898 19.9853 11.5243 21.72L11.521 21.7244L11.517 21.73C9.8288 23.8628 8.05048 26.1096 5.73683 28.4232L3.63571 26.322C5.97567 23.982 8.22608 22.202 10.3574 20.5161L10.3601 20.5138C12.0875 19.1476 13.7368 17.843 15.292 16.3521C13.1288 16.3978 11.0223 16.6428 8.82008 16.899C6.11808 17.2134 3.27187 17.5445 0 17.5445V14.5732C3.30915 14.5732 6.15915 14.9057 8.85824 15.2208C11.0471 15.4762 13.1368 15.72 15.292 15.7656C13.7302 14.2682 12.0674 12.9521 10.3293 11.5761C8.19624 9.88772 5.94933 8.10932 3.63571 5.79567L5.73683 3.69455C8.07656 6.0344 9.85672 8.28468 11.5424 10.4159C12.9096 12.1444 14.2147 13.7945 15.7067 15.3507C15.6612 13.197 15.4176 11.1087 15.1625 8.92132L15.1618 8.91692Z" fill="#FFA589"/>
</g>
<defs>
<clipPath id="clip0_2016_37112">
<rect width="32" height="32" fill="white" transform="translate(0 0.0588379)"/>
</clipPath>
</defs>
</svg>
