<svg width="100" height="21" viewBox="0 0 100 21" fill="none" xmlns="http://www.w3.org/2000/svg">
<path d="M9.99984 1.72549L12.5748 6.94216L18.3332 7.78383L14.1665 11.8422L15.1498 17.5755L9.99984 14.8672L4.84984 17.5755L5.83317 11.8422L1.6665 7.78383L7.42484 6.94216L9.99984 1.72549Z" fill="#F77D57"/>
<path d="M29.9998 1.72549L32.5748 6.94216L38.3332 7.78383L34.1665 11.8422L35.1498 17.5755L29.9998 14.8672L24.8498 17.5755L25.8332 11.8422L21.6665 7.78383L27.4248 6.94216L29.9998 1.72549Z" fill="#F77D57"/>
<path d="M49.9998 1.72549L52.5748 6.94216L58.3332 7.78383L54.1665 11.8422L55.1498 17.5755L49.9998 14.8672L44.8498 17.5755L45.8332 11.8422L41.6665 7.78383L47.4248 6.94216L49.9998 1.72549Z" fill="#F77D57"/>
<path d="M69.9998 1.72549L72.5748 6.94216L78.3332 7.78383L74.1665 11.8422L75.1498 17.5755L69.9998 14.8672L64.8498 17.5755L65.8332 11.8422L61.6665 7.78383L67.4248 6.94216L69.9998 1.72549Z" fill="#F77D57"/>
<path d="M89.9998 1.72549L92.5748 6.94216L98.3332 7.78383L94.1665 11.8422L95.1498 17.5755L89.9998 14.8672L84.8498 17.5755L85.8332 11.8422L81.6665 7.78383L87.4248 6.94216L89.9998 1.72549Z" fill="#F77D57"/>
</svg>
